<svg width="193" height="194" viewBox="0 0 193 194" fill="none" xmlns="http://www.w3.org/2000/svg">
<g clip-path="url(#clip0_41_30)">
<path d="M78.4859 87.0231C79.6453 86.9115 80.7451 86.4542 81.6462 85.7093C82.5474 84.9643 83.2095 83.965 83.5487 82.8378C83.888 81.7106 83.8891 80.5061 83.5521 79.3766C83.2151 78.2471 82.555 77.2433 81.6552 76.4922C80.7555 75.7411 79.6566 75.2764 78.4975 75.1569C77.3384 75.0374 76.1711 75.2684 75.1433 75.8208C74.1154 76.3731 73.2732 77.222 72.7231 78.26C72.1729 79.298 71.9396 80.4786 72.0527 81.6525C72.2042 83.2265 72.9672 84.6767 74.1736 85.6839C75.3801 86.6911 76.9313 87.1728 78.4859 87.0231ZM80.0582 103.352C80.0035 102.797 80.0607 102.238 80.2263 101.707C80.392 101.176 80.6626 100.685 81.0218 100.264L87.0203 93.3145C87.1575 93.1562 87.3449 93.0671 87.5022 92.934C86.9648 91.8707 86.1245 90.9946 85.0903 90.4195C84.0562 89.8443 82.8759 89.5966 81.7025 89.7084L75.8408 90.2728C74.2861 90.4225 72.8554 91.1914 71.8633 92.4103C70.8711 93.6292 70.3989 95.1982 70.5505 96.7723L71.4077 105.675C71.4835 106.462 71.8649 107.187 72.4682 107.691C73.0714 108.194 73.847 108.435 74.6243 108.36L75.7673 120.23C75.8431 121.017 76.2245 121.742 76.8278 122.246C77.431 122.75 78.2066 122.99 78.9839 122.916L84.8457 122.351C85.623 122.276 86.3384 121.892 86.8344 121.282C87.3305 120.673 87.5666 119.888 87.4908 119.101L86.6301 110.163L81.5932 106.199C81.1602 105.854 80.8008 105.424 80.5369 104.935C80.273 104.445 80.1101 103.907 80.0582 103.352ZM113.657 83.6365C114.816 83.5249 115.916 83.0677 116.817 82.3227C117.718 81.5778 118.38 80.5785 118.719 79.4513C119.059 78.3241 119.06 77.1196 118.723 75.99C118.386 74.8605 117.726 73.8568 116.826 73.1057C115.926 72.3546 114.827 71.8899 113.668 71.7704C112.509 71.6509 111.342 71.8819 110.314 72.4342C109.286 72.9866 108.444 73.8354 107.894 74.8735C107.344 75.9115 107.11 77.0921 107.223 78.2659C107.375 79.84 108.138 81.2901 109.344 82.2973C110.551 83.3045 112.102 83.7862 113.657 83.6365ZM116.873 86.3219L111.011 86.8863C109.838 87.0003 108.727 87.4685 107.822 88.2303C106.916 88.992 106.259 90.0121 105.934 91.1583C106.114 91.2599 106.318 91.3085 106.481 91.4417L113.694 97.1172C114.126 97.4631 114.484 97.8937 114.748 98.383C115.011 98.8722 115.175 99.4102 115.228 99.9645C115.282 100.519 115.224 101.078 115.058 101.609C114.893 102.139 114.623 102.63 114.265 103.052L110.077 107.906L110.938 116.844C111.014 117.631 111.395 118.356 111.998 118.859C112.602 119.363 113.377 119.604 114.155 119.529L120.016 118.965C120.794 118.89 121.509 118.505 122.005 117.896C122.501 117.286 122.737 116.502 122.662 115.715L121.519 103.845C122.296 103.77 123.011 103.385 123.507 102.776C124.003 102.167 124.239 101.382 124.164 100.595L123.306 91.6925C123.155 90.1184 122.392 88.6683 121.186 87.6611C119.979 86.6539 118.428 86.1722 116.873 86.3219ZM111.89 99.4688L104.677 93.7933C104.507 93.6578 104.301 93.5759 104.085 93.5578C103.869 93.5396 103.653 93.586 103.464 93.6912C103.274 93.7965 103.119 93.9558 103.019 94.1495C102.918 94.3432 102.876 94.5627 102.897 94.7808L103.219 98.1192L91.4953 99.2481L91.1738 95.9096C91.1536 95.6914 91.0705 95.4838 90.9348 95.3127C90.7991 95.1416 90.6168 95.0146 90.4105 94.9474C90.2043 94.8802 89.9832 94.8757 89.7748 94.9347C89.5664 94.9936 89.3799 95.1133 89.2384 95.2789L83.2408 102.227C83.0504 102.463 82.9599 102.766 82.9892 103.069C83.0184 103.373 83.1649 103.652 83.3968 103.848L90.6101 109.524C90.7806 109.66 90.9866 109.741 91.2025 109.76C91.4184 109.778 91.6347 109.731 91.8243 109.626C92.0139 109.52 92.1686 109.36 92.2691 109.166C92.3696 108.972 92.4115 108.753 92.3895 108.535L92.0668 105.183L103.79 104.054L104.113 107.406C104.133 107.624 104.216 107.832 104.352 108.003C104.487 108.174 104.67 108.301 104.876 108.369C105.082 108.436 105.303 108.441 105.512 108.382C105.72 108.323 105.907 108.203 106.049 108.037L112.046 101.089C112.237 100.853 112.327 100.551 112.298 100.247C112.269 99.9436 112.122 99.6639 111.89 99.4688Z" fill="#053D7E"/>
</g>
<path d="M189.202 87.9909C191.43 87.7763 193.071 85.7944 192.763 83.5773C189.889 62.8766 180.362 43.6268 165.565 28.7648C149.813 12.9436 129.062 3.07385 106.849 0.837078C84.6353 -1.3997 62.3335 4.13493 43.7432 16.4979C25.153 28.861 11.4246 47.2874 4.89717 68.6377C-1.63025 89.9879 -0.552837 112.941 7.94585 133.586C16.4445 154.231 31.8387 171.29 51.5052 181.857C71.1718 192.425 93.894 195.846 115.8 191.538C136.378 187.492 155.041 176.86 168.999 161.306C170.494 159.64 170.242 157.079 168.515 155.655C166.788 154.231 164.24 154.484 162.739 156.144C149.978 170.255 132.974 179.9 114.236 183.585C94.1701 187.531 73.3565 184.397 55.3419 174.717C37.3273 165.037 23.2263 149.411 15.4415 130.5C7.65668 111.589 6.66976 90.5645 12.6489 71.0076C18.628 51.4508 31.2033 34.5721 48.2319 23.2476C65.2606 11.923 85.6891 6.85331 106.037 8.9022C126.384 10.9511 145.392 19.9918 159.821 34.484C173.295 48.0169 181.998 65.5214 184.687 84.3551C185.003 86.571 186.974 88.2054 189.202 87.9909Z" fill="#053D7E"/>
<defs>
<clipPath id="clip0_41_30">
<rect width="53" height="47.7" fill="white" transform="translate(68.5503 75.9996) rotate(-5.5)"/>
</clipPath>
</defs>
</svg>
