<svg width="206" height="181" viewBox="0 0 206 181" fill="none" xmlns="http://www.w3.org/2000/svg">
<path d="M116.727 86.4688C116.429 85.4318 116.01 84.5156 115.47 83.7202C114.93 82.9105 114.27 82.2287 113.489 81.6747C112.722 81.1065 111.841 80.6733 110.847 80.375C109.866 80.0767 108.78 79.9276 107.587 79.9276C105.357 79.9276 103.396 80.4815 101.706 81.5895C100.03 82.6974 98.723 84.3097 97.7855 86.4261C96.848 88.5284 96.3793 91.0994 96.3793 94.1392C96.3793 97.179 96.8409 99.7642 97.7642 101.895C98.6875 104.026 99.9943 105.652 101.685 106.774C103.375 107.882 105.371 108.436 107.672 108.436C109.76 108.436 111.543 108.067 113.02 107.328C114.511 106.575 115.648 105.517 116.429 104.153C117.224 102.79 117.622 101.178 117.622 99.3168L119.497 99.5938H108.247V92.6477H126.507V98.1449C126.507 101.98 125.697 105.276 124.078 108.031C122.459 110.773 120.229 112.889 117.388 114.381C114.547 115.858 111.294 116.597 107.629 116.597C103.538 116.597 99.9446 115.695 96.848 113.891C93.7514 112.072 91.3366 109.494 89.6037 106.156C87.8849 102.804 87.0256 98.8267 87.0256 94.2244C87.0256 90.6875 87.5369 87.5341 88.5597 84.7642C89.5966 81.9801 91.0455 79.6222 92.9062 77.6903C94.767 75.7585 96.9332 74.2884 99.4048 73.2798C101.876 72.2713 104.554 71.767 107.438 71.767C109.909 71.767 112.21 72.1293 114.341 72.8537C116.472 73.5639 118.361 74.5724 120.009 75.8793C121.67 77.1861 123.027 78.7415 124.078 80.5455C125.129 82.3352 125.804 84.3097 126.102 86.4688H116.727Z" fill="#053D7E"/>
<path d="M155 122.944V86.9444C155 84.4398 154.489 81.9615 153.498 79.6613C152.507 77.3612 151.057 75.2876 149.236 73.5676L115.32 41.5148C113.612 39.8998 111.351 39 109 39C106.649 39 104.388 39.8998 102.68 41.5148L68.7638 73.5676C66.9432 75.2876 65.493 77.3612 64.5019 79.6613C63.5108 81.9615 62.9997 84.4398 63 86.9444V122.944C63 125.384 63.9693 127.724 65.6946 129.449C67.42 131.175 69.76 132.144 72.2 132.144H145.8C148.24 132.144 150.58 131.175 152.305 129.449C154.031 127.724 155 125.384 155 122.944Z" stroke="#111111" stroke-width="5" stroke-linecap="round" stroke-linejoin="round"/>
</svg>
