<svg width="135" height="175" viewBox="0 0 135 175" fill="none" xmlns="http://www.w3.org/2000/svg">
<path d="M67.6667 67.4715H81.1333V80.9126H67.6667V67.4715ZM94.6 67.4715H108.067V80.9126H94.6V67.4715ZM94.6 94.562H108.067V107.795H94.6V94.562ZM94.6 121.236H108.067V134.677H94.6V121.236ZM40.7333 127.956H54.2V141.397H40.7333V127.956Z" fill="#053D7E"/>
<path d="M121.533 40.5894H54.2C46.7731 40.5894 40.7333 46.6177 40.7333 54.0304V91.5713L9.03953 123.205C8.09815 124.145 7.45709 125.342 7.19741 126.646C6.93772 127.949 7.07106 129.3 7.58057 130.528C8.09008 131.756 8.95289 132.805 10.0599 133.544C11.1669 134.282 12.4685 134.677 13.8 134.677V168.279C13.8 170.062 14.5094 171.771 15.7721 173.032C17.0349 174.292 18.7475 175 20.5333 175H128.267C130.052 175 131.765 174.292 133.028 173.032C134.291 171.771 135 170.062 135 168.279V54.0304C135 46.6177 128.96 40.5894 121.533 40.5894ZM67.6667 161.559H27.2667V124.018L47.4667 103.856L67.6667 124.018V161.559ZM121.533 161.559H81.1333V134.677C82.4663 134.68 83.7701 134.287 84.8792 133.549C85.9883 132.811 86.8528 131.761 87.3628 130.532C87.8729 129.303 88.0056 127.95 87.744 126.646C87.4825 125.341 86.8385 124.143 85.8938 123.205L54.2 91.5713V54.0304H121.533V161.559Z" fill="#053D7E"/>
<path d="M21.5 81.3451C20.5 81.0955 19.5 80.5965 18.75 79.8479C18 79.5984 17.75 78.8498 17.75 78.3508C17.75 77.8517 18 77.1031 18.5 76.8536C19.25 76.3546 20 75.8555 20.75 76.105C22.25 76.105 23.5 76.8536 24.25 77.8517L26.5 74.8574C25.75 74.1088 25 73.6098 24.25 73.1107C23.5 72.6117 22.5 72.3622 21.5 72.3622V68.8688H18.5V72.3622C17.25 72.6117 16 73.3603 15 74.3584C14 75.606 13.25 77.1031 13.5 78.6003C13.5 80.0974 14 81.5946 15 82.5927C16.25 83.8403 18 84.5889 19.5 85.3375C20.25 85.587 21.25 86.086 22 86.5851C22.5 87.0841 22.75 87.8327 22.75 88.5813C22.75 89.3299 22.5 90.0784 22 90.827C21.25 91.5756 20.25 91.8251 19.5 91.8251C18.5 91.8251 17.25 91.5756 16.5 90.827C15.75 90.3279 15 89.5794 14.5 88.8308L12 91.5756C12.75 92.5737 13.5 93.3223 14.5 94.0708C15.75 94.8194 17.25 95.568 18.75 95.568V98.8118H21.5V95.0689C23 94.8194 24.25 94.0708 25.25 93.0727C26.5 91.8251 27.25 89.8289 27.25 88.0822C27.25 86.5851 26.75 84.8384 25.5 83.8403C24.25 82.5927 23 81.8441 21.5 81.3451ZM20 63.8783C9 63.8783 0 72.8612 0 83.8403C0 94.8194 9 103.802 20 103.802C31 103.802 40 94.8194 40 83.8403C40 72.8612 31 63.8783 20 63.8783ZM20 101.058C10.5 101.058 2.75 93.3223 2.75 83.8403C2.75 74.3584 10.5 66.6231 20 66.6231C29.5 66.6231 37.25 74.3584 37.25 83.8403C37.25 93.3223 29.5 101.058 20 101.058Z" fill="#053D7E"/>
<path d="M95.1 17.4667C94.1 17.2172 93.1 16.7182 92.35 15.9696C91.6 15.7201 91.35 14.9715 91.35 14.4724C91.35 13.9734 91.6 13.2248 92.1 12.9753C92.85 12.4762 93.6 11.9772 94.35 12.2267C95.85 12.2267 97.1 12.9753 97.85 13.9734L100.1 10.9791C99.35 10.2305 98.6 9.73146 97.85 9.23241C97.1 8.73337 96.1 8.48384 95.1 8.48384V4.99049H92.1V8.48384C90.85 8.73337 89.6 9.48194 88.6 10.48C87.6 11.7277 86.85 13.2248 87.1 14.722C87.1 16.2191 87.6 17.7163 88.6 18.7144C89.85 19.962 91.6 20.7106 93.1 21.4591C93.85 21.7087 94.85 22.2077 95.6 22.7068C96.1 23.2058 96.35 23.9544 96.35 24.7029C96.35 25.4515 96.1 26.2001 95.6 26.9487C94.85 27.6972 93.85 27.9468 93.1 27.9468C92.1 27.9468 90.85 27.6972 90.1 26.9487C89.35 26.4496 88.6 25.701 88.1 24.9525L85.6 27.6972C86.35 28.6953 87.1 29.4439 88.1 30.1925C89.35 30.9411 90.85 31.6896 92.35 31.6896V34.9335H95.1V31.1906C96.6 30.9411 97.85 30.1925 98.85 29.1944C100.1 27.9468 100.85 25.9506 100.85 24.2039C100.85 22.7068 100.35 20.9601 99.1 19.962C97.85 18.7144 96.6 17.9658 95.1 17.4667ZM93.6 0C82.6 0 73.6 8.98289 73.6 19.962C73.6 30.9411 82.6 39.924 93.6 39.924C104.6 39.924 113.6 30.9411 113.6 19.962C113.6 8.98289 104.6 0 93.6 0ZM93.6 37.1792C84.1 37.1792 76.35 29.4439 76.35 19.962C76.35 10.48 84.1 2.74477 93.6 2.74477C103.1 2.74477 110.85 10.48 110.85 19.962C110.85 29.4439 103.1 37.1792 93.6 37.1792Z" fill="#053D7E"/>
</svg>
