<svg width="169" height="169" viewBox="0 0 169 169" fill="none" xmlns="http://www.w3.org/2000/svg">
<path d="M70.3101 77.6691H70.9657C70.8079 76.258 70.8721 74.831 71.156 73.4398C70.3494 73.5943 69.5157 73.5209 68.7485 73.2279C67.9813 72.935 67.3109 72.4341 66.8124 71.7814C66.314 71.1287 66.0073 70.35 65.9267 69.5328C65.8461 68.7155 65.9949 67.8919 66.3562 67.1545C66.7176 66.417 67.2773 65.7948 67.9725 65.3577C68.6678 64.9205 69.471 64.6858 70.2923 64.6797C71.1135 64.6736 71.9201 64.8965 72.6218 65.3233C73.3234 65.7501 73.8922 66.3639 74.2645 67.096C75.2072 66.0087 76.3129 65.0742 77.5421 64.3258C76.7218 63.0726 75.59 62.0539 74.2577 61.3695C72.9254 60.6851 71.4381 60.3584 69.9416 60.4215C68.4451 60.4845 66.9906 60.9352 65.7206 61.7293C64.4506 62.5233 63.4086 63.6336 62.6966 64.9514C61.9846 66.2692 61.6271 67.7494 61.659 69.2469C61.6909 70.7444 62.1112 72.2079 62.8787 73.4942C63.6461 74.7804 64.7345 75.8453 66.0372 76.5846C67.3399 77.3238 68.8123 77.7121 70.3101 77.7113V77.6691Z" fill="#053D7E"/>
<path d="M74.349 85.2182C73.1504 83.8601 72.2307 82.2793 71.6423 80.5661H70.3101C67.7996 80.4753 65.2971 80.9015 62.9582 81.8182C60.6192 82.7349 58.4935 84.1225 56.7132 85.8949L56.2057 86.487V101.289H60.4349V88.1153C63.2066 85.8257 66.7167 84.623 70.3101 84.7319C71.671 84.7328 73.0269 84.896 74.349 85.2182Z" fill="#053D7E"/>
<path d="M113.152 85.8103C111.396 84.0547 109.298 82.6779 106.988 81.765C104.679 80.8521 102.207 80.4224 99.7244 80.5026C99.0477 80.5026 98.4556 80.5026 97.8212 80.6295C97.2014 82.3923 96.2302 84.0109 94.9665 85.3874C96.5126 84.9409 98.1151 84.7201 99.7244 84.7319C103.292 84.6151 106.781 85.8029 109.536 88.073V101.332H113.765V86.4024L113.152 85.8103Z" fill="#053D7E"/>
<path d="M85.1336 88.5805C82.3695 88.483 79.6143 88.9461 77.0341 89.9419C74.4538 90.9376 72.1018 92.4455 70.1198 94.3745L69.5912 94.9666V110.467C69.5994 110.905 69.6941 111.336 69.87 111.737C70.0458 112.139 70.2992 112.501 70.6157 112.803C70.9321 113.106 71.3053 113.343 71.7138 113.501C72.1223 113.659 72.5579 113.734 72.9957 113.723H97.2503C97.688 113.734 98.1237 113.659 98.5321 113.501C98.9406 113.343 99.3138 113.106 99.6303 112.803C99.9467 112.501 100.2 112.139 100.376 111.737C100.552 111.336 100.647 110.905 100.655 110.467V94.9243L100.126 94.3322C98.1511 92.4023 95.8023 90.8965 93.2241 89.9074C90.6459 88.9183 87.8926 88.4667 85.1336 88.5805ZM96.4044 109.473H73.7781V96.6583C76.9741 94.0458 81.0078 92.6787 85.1336 92.8097C89.2274 92.6721 93.2322 94.0245 96.4044 96.616V109.473Z" fill="#053D7E"/>
<path d="M89.7434 77.0347C89.5703 78.0096 89.1226 78.9148 88.4528 79.6441C87.7831 80.3734 86.9191 80.8963 85.9624 81.1515C85.0057 81.4068 83.9961 81.3837 83.0521 81.0849C82.1081 80.7862 81.2689 80.2242 80.6332 79.4651C79.9975 78.7059 79.5917 77.7811 79.4634 76.7993C79.3352 75.8175 79.4898 74.8195 79.909 73.9225C80.3283 73.0255 80.9949 72.2668 81.8305 71.7356C82.6661 71.2043 83.6359 70.9226 84.626 70.9234C85.359 70.9405 86.0798 71.1135 86.7407 71.4309C86.6368 69.9635 86.9521 68.4968 87.6499 67.2017C86.6471 66.8335 85.5885 66.6404 84.5203 66.6308C82.7599 66.6381 81.0365 67.1369 79.5443 68.0709C78.0521 69.005 76.8505 70.3372 76.0746 71.9174C75.2988 73.4977 74.9798 75.2632 75.1533 77.015C75.3269 78.7669 75.9863 80.4354 77.0571 81.8327C78.1279 83.23 79.5677 84.3005 81.2142 84.9235C82.8606 85.5466 84.6484 85.6975 86.376 85.3592C88.1036 85.0209 89.7024 84.2068 90.9923 83.0088C92.2822 81.8108 93.2118 80.2763 93.6766 78.5783C92.2485 78.4353 90.8875 77.9012 89.7434 77.0347Z" fill="#053D7E"/>
<path d="M104.334 48.5508L92.2386 69.5066C92.007 69.9162 91.8862 70.3791 91.888 70.8496C91.8899 71.3202 92.0144 71.7821 92.2492 72.1898C92.484 72.5976 92.8211 72.9371 93.2271 73.1748C93.6332 73.4126 94.0942 73.5403 94.5647 73.5456H118.756C119.226 73.5403 119.687 73.4126 120.093 73.1748C120.5 72.9371 120.837 72.5976 121.071 72.1898C121.306 71.7821 121.431 71.3202 121.433 70.8496C121.434 70.3791 121.314 69.9162 121.082 69.5066L109.007 48.5508C108.769 48.1428 108.428 47.8044 108.018 47.5692C107.608 47.334 107.143 47.2102 106.671 47.2102C106.198 47.2102 105.734 47.334 105.324 47.5692C104.914 47.8044 104.573 48.1428 104.334 48.5508Z" fill="#053D7E"/>
<path d="M165.396 74.783C167.053 74.584 168.564 75.7662 168.704 77.4294C170.251 95.8494 165.715 114.301 155.746 129.934C145.235 146.417 129.333 158.746 110.751 164.819C92.169 170.892 72.0559 170.335 53.8388 163.241C35.6217 156.147 20.4278 142.957 10.8459 125.916C1.26406 108.876 -2.11288 89.0405 1.29047 69.7895C4.69383 50.5385 14.6669 33.0631 29.5104 20.3409C44.3539 7.6188 63.1495 0.437021 82.6945 0.0193052C101.231 -0.376851 119.353 5.33406 134.288 16.2259C135.637 17.2094 135.862 19.1141 134.831 20.4267C133.8 21.7392 131.904 21.9621 130.552 20.9824C116.719 10.9523 99.9617 5.69584 82.8236 6.06212C64.6766 6.44996 47.2255 13.118 33.4438 24.9302C19.662 36.7423 10.4023 52.9677 7.24236 70.8417C4.08245 88.7157 7.21784 107.132 16.1143 122.954C25.0108 138.775 39.1179 151.022 56.0319 157.609C72.946 164.195 91.6205 164.713 108.873 159.074C126.126 153.435 140.89 141.988 150.65 126.684C159.867 112.231 164.082 95.1814 162.698 78.1505C162.563 76.4869 163.739 74.9821 165.396 74.783Z" fill="#053D7E"/>
</svg>
